{
    "asset" : {
        "generator" : "Khronos glTF Blender I/O v1.7.33",
        "version" : "2.0"
    },
    "scene" : 0,
    "scenes" : [
        {
            "name" : "Scene",
            "nodes" : [
                0
            ]
        }
    ],
    "nodes" : [
        {
            "mesh" : 0,
            "name" : "dna_02",
            "translation" : [
                -0.314315527677536,
                -0.047858137637376785,
                0.04315187782049179
            ]
        }
    ],
    "materials" : [
        {
            "doubleSided" : true,
            "name" : "TT_checker_512x512_UV_GRID",
            "pbrMetallicRoughness" : {
                "baseColorFactor" : [
                    0.800000011920929,
                    0.800000011920929,
                    0.800000011920929,
                    1
                ],
                "roughnessFactor" : 0.5527864098548889
            }
        }
    ],
    "meshes" : [
        {
            "name" : "CUGP_Layer.001",
            "primitives" : [
                {
                    "attributes" : {
                        "POSITION" : 0,
                        "NORMAL" : 1,
                        "TANGENT" : 2,
                        "TEXCOORD_0" : 3
                    },
                    "indices" : 4,
                    "material" : 0
                }
            ]
        }
    ],
    "accessors" : [
        {
            "bufferView" : 0,
            "componentType" : 5126,
            "count" : 1078,
            "max" : [
                0.060803674161434174,
                0.01784878596663475,
                0.2661353349685669
            ],
            "min" : [
                -0.06844887137413025,
                -0.01708763651549816,
                -0.23302720487117767
            ],
            "type" : "VEC3"
        },
        {
            "bufferView" : 1,
            "componentType" : 5126,
            "count" : 1078,
            "type" : "VEC3"
        },
        {
            "bufferView" : 2,
            "componentType" : 5126,
            "count" : 1078,
            "type" : "VEC4"
        },
        {
            "bufferView" : 3,
            "componentType" : 5126,
            "count" : 1078,
            "type" : "VEC2"
        },
        {
            "bufferView" : 4,
            "componentType" : 5123,
            "count" : 5508,
            "type" : "SCALAR"
        }
    ],
    "bufferViews" : [
        {
            "buffer" : 0,
            "byteLength" : 12936,
            "byteOffset" : 0
        },
        {
            "buffer" : 0,
            "byteLength" : 12936,
            "byteOffset" : 12936
        },
        {
            "buffer" : 0,
            "byteLength" : 17248,
            "byteOffset" : 25872
        },
        {
            "buffer" : 0,
            "byteLength" : 8624,
            "byteOffset" : 43120
        },
        {
            "buffer" : 0,
            "byteLength" : 11016,
            "byteOffset" : 51744
        }
    ],
    "buffers" : [
        {
            "byteLength" : 62760,
            "uri" : "data:application/octet-stream;base64,"
        }
    ]
}
