{
    "asset" : {
        "generator" : "Khronos glTF Blender I/O v1.7.33",
        "version" : "2.0"
    },
    "scene" : 0,
    "scenes" : [
        {
            "name" : "Scene",
            "nodes" : [
                0
            ]
        }
    ],
    "nodes" : [
        {
            "mesh" : 0,
            "name" : "Sphere",
            "scale" : [
                1.3295512199401855,
                1.3295512199401855,
                1.3295512199401855
            ]
        }
    ],
    "materials" : [
        {
            "doubleSided" : true,
            "name" : "PeaGreen",
            "pbrMetallicRoughness" : {
                "baseColorFactor" : [
                    0.800000011920929,
                    0.800000011920929,
                    0.800000011920929,
                    1
                ],
                "metallicFactor" : 0,
                "roughnessFactor" : 0.5
            }
        }
    ],
    "meshes" : [
        {
            "name" : "Sphere",
            "primitives" : [
                {
                    "attributes" : {
                        "POSITION" : 0,
                        "NORMAL" : 1,
                        "TEXCOORD_0" : 2
                    },
                    "indices" : 3,
                    "material" : 0
                }
            ]
        }
    ],
    "accessors" : [
        {
            "bufferView" : 0,
            "componentType" : 5126,
            "count" : 625,
            "max" : [
                0.9935314059257507,
                1.1882985830307007,
                0.9703884124755859
            ],
            "min" : [
                -1.0738697052001953,
                -1,
                -0.9296835660934448
            ],
            "type" : "VEC3"
        },
        {
            "bufferView" : 1,
            "componentType" : 5126,
            "count" : 625,
            "type" : "VEC3"
        },
        {
            "bufferView" : 2,
            "componentType" : 5126,
            "count" : 625,
            "type" : "VEC2"
        },
        {
            "bufferView" : 3,
            "componentType" : 5123,
            "count" : 3264,
            "type" : "SCALAR"
        }
    ],
    "bufferViews" : [
        {
            "buffer" : 0,
            "byteLength" : 7500,
            "byteOffset" : 0
        },
        {
            "buffer" : 0,
            "byteLength" : 7500,
            "byteOffset" : 7500
        },
        {
            "buffer" : 0,
            "byteLength" : 5000,
            "byteOffset" : 15000
        },
        {
            "buffer" : 0,
            "byteLength" : 6528,
            "byteOffset" : 20000
        }
    ],
    "buffers" : [
        {
            "byteLength" : 26528,
            "uri" : "data:application/octet-stream;base64,"
        }
    ]
}
