{
    "asset" : {
        "generator" : "Khronos glTF Blender I/O v1.7.33",
        "version" : "2.0"
    },
    "scene" : 0,
    "scenes" : [
        {
            "name" : "Scene",
            "nodes" : [
                0
            ]
        }
    ],
    "nodes" : [
        {
            "mesh" : 0,
            "name" : "clipb",
            "rotation" : [
                -0.04727036878466606,
                -0.24758578836917877,
                0.07670211791992188,
                0.9646676182746887
            ],
            "scale" : [
                0.04498480632901192,
                0.044984810054302216,
                0.044984810054302216
            ],
            "translation" : [
                0.016941577196121216,
                4.035994529724121,
                -0.002344191074371338
            ]
        }
    ],
    "materials" : [
        {
            "doubleSided" : true,
            "name" : "1_-_Default",
            "pbrMetallicRoughness" : {
                "baseColorFactor" : [
                    0.800000011920929,
                    0.800000011920929,
                    0.800000011920929,
                    1
                ],
                "metallicFactor" : 0,
                "roughnessFactor" : 0.5
            }
        }
    ],
    "meshes" : [
        {
            "name" : "clipb",
            "primitives" : [
                {
                    "attributes" : {
                        "POSITION" : 0,
                        "NORMAL" : 1
                    },
                    "indices" : 2,
                    "material" : 0
                }
            ]
        }
    ],
    "accessors" : [
        {
            "bufferView" : 0,
            "componentType" : 5126,
            "count" : 2568,
            "max" : [
                95.7478256225586,
                11.525097846984863,
                54.71864318847656
            ],
            "min" : [
                -79.99288177490234,
                -19.558298110961914,
                -60.602569580078125
            ],
            "type" : "VEC3"
        },
        {
            "bufferView" : 1,
            "componentType" : 5126,
            "count" : 2568,
            "type" : "VEC3"
        },
        {
            "bufferView" : 2,
            "componentType" : 5123,
            "count" : 15396,
            "type" : "SCALAR"
        }
    ],
    "bufferViews" : [
        {
            "buffer" : 0,
            "byteLength" : 30816,
            "byteOffset" : 0
        },
        {
            "buffer" : 0,
            "byteLength" : 30816,
            "byteOffset" : 30816
        },
        {
            "buffer" : 0,
            "byteLength" : 30792,
            "byteOffset" : 61632
        }
    ],
    "buffers" : [
        {
            "byteLength" : 92424,
            "uri" : "data:application/octet-stream;base64,"
        }
    ]
}
