{
	"asset":
	{
		"version": "2.0",
		"generator": "Unreal Engine 4.27.0 glTF Exporter 1.0.6"
	},
	"scene": 0,
	"accessors": [
		{
			"bufferView": 0,
			"count": 12420,
			"type": "SCALAR",
			"componentType": 5123
		},
		{
			"bufferView": 1,
			"count": 3106,
			"type": "VEC3",
			"componentType": 5126,
			"min": [ -0.699963212,
				0.0320304371,
				-3.8369441
			],
			"max": [ 1.74548829,
				3.41849995,
				1.02420473
			]
		},
		{
			"bufferView": 2,
			"count": 3106,
			"type": "VEC3",
			"componentType": 5126
		},
		{
			"bufferView": 3,
			"count": 3106,
			"type": "VEC4",
			"componentType": 5126
		},
		{
			"bufferView": 4,
			"count": 3106,
			"type": "VEC2",
			"componentType": 5126
		},
		{
			"bufferView": 5,
			"count": 3106,
			"type": "VEC2",
			"componentType": 5126
		}
	],
	"buffers": [
		{
			"uri": "polymerase_complex_B.bin",
			"byteLength": 198776
		}
	],
	"bufferViews": [
		{
			"buffer": 0,
			"byteLength": 24840,
			"target": 34963
		},
		{
			"buffer": 0,
			"byteLength": 37272,
			"byteOffset": 24840,
			"target": 34962
		},
		{
			"buffer": 0,
			"byteLength": 37272,
			"byteOffset": 62112,
			"target": 34962
		},
		{
			"buffer": 0,
			"byteLength": 49696,
			"byteOffset": 99384,
			"target": 34962
		},
		{
			"buffer": 0,
			"byteLength": 24848,
			"byteOffset": 149080,
			"target": 34962
		},
		{
			"buffer": 0,
			"byteLength": 24848,
			"byteOffset": 173928,
			"target": 34962
		}
	],
	"images": [
		{
			"uri": "WorldGridMaterial_BaseColor.png"
		},
		{
			"uri": "WorldGridMaterial_MetallicRoughness.png"
		},
		{
			"uri": "WorldGridMaterial_Normal.png"
		}
	],
	"materials": [
		{
			"name": "WorldGridMaterial",
			"pbrMetallicRoughness":
			{
				"baseColorTexture":
				{
					"index": 0
				},
				"metallicRoughnessTexture":
				{
					"index": 1
				}
			},
			"normalTexture":
			{
				"index": 2
			}
		}
	],
	"meshes": [
		{
			"name": "polymerase_complex_B",
			"primitives": [
				{
					"attributes":
					{
						"POSITION": 1,
						"NORMAL": 2,
						"TANGENT": 3,
						"TEXCOORD_0": 4,
						"TEXCOORD_1": 5
					},
					"indices": 0,
					"material": 0
				}
			]
		}
	],
	"nodes": [
		{
			"mesh": 0
		}
	],
	"samplers": [
		{
			"name": "WorldGridMaterial_BaseColor",
			"minFilter": 9987,
			"magFilter": 9729
		},
		{
			"name": "WorldGridMaterial_MetallicRoughness",
			"minFilter": 9987,
			"magFilter": 9729
		},
		{
			"name": "WorldGridMaterial_Normal",
			"minFilter": 9987,
			"magFilter": 9729
		}
	],
	"scenes": [
		{
			"nodes": [ 0 ]
		}
	],
	"textures": [
		{
			"name": "WorldGridMaterial_BaseColor",
			"sampler": 0,
			"source": 0
		},
		{
			"name": "WorldGridMaterial_MetallicRoughness",
			"sampler": 1,
			"source": 1
		},
		{
			"name": "WorldGridMaterial_Normal",
			"sampler": 2,
			"source": 2
		}
	]
}