{
    "asset" : {
        "generator" : "Khronos glTF Blender I/O v1.7.33",
        "version" : "2.0"
    },
    "scene" : 0,
    "scenes" : [
        {
            "name" : "Scene",
            "nodes" : [
                0
            ]
        }
    ],
    "nodes" : [
        {
            "mesh" : 0,
            "name" : "Cell_Membrane",
            "rotation" : [
                0.7071068286895752,
                0,
                0,
                0.7071067094802856
            ]
        }
    ],
    "materials" : [
        {
            "alphaMode" : "BLEND",
            "doubleSided" : true,
            "name" : "Cell_Membrane_mt",
            "pbrMetallicRoughness" : {
                "baseColorFactor" : [
                    1,
                    0.5921568870544434,
                    0.6465359330177307,
                    0
                ],
                "metallicFactor" : 0.23200000822544098,
                "roughnessFactor" : 0.7018576264381409
            }
        }
    ],
    "meshes" : [
        {
            "name" : "Cell_Membrane",
            "primitives" : [
                {
                    "attributes" : {
                        "POSITION" : 0,
                        "NORMAL" : 1,
                        "TEXCOORD_0" : 2
                    },
                    "indices" : 3,
                    "material" : 0
                }
            ]
        }
    ],
    "accessors" : [
        {
            "bufferView" : 0,
            "componentType" : 5126,
            "count" : 31323,
            "max" : [
                22.206783294677734,
                21.465431213378906,
                -0.6517887711524963
            ],
            "min" : [
                -21.160005569458008,
                -21.865192413330078,
                -41.89617156982422
            ],
            "type" : "VEC3"
        },
        {
            "bufferView" : 1,
            "componentType" : 5126,
            "count" : 31323,
            "type" : "VEC3"
        },
        {
            "bufferView" : 2,
            "componentType" : 5126,
            "count" : 31323,
            "type" : "VEC2"
        },
        {
            "bufferView" : 3,
            "componentType" : 5123,
            "count" : 171984,
            "type" : "SCALAR"
        }
    ],
    "bufferViews" : [
        {
            "buffer" : 0,
            "byteLength" : 375876,
            "byteOffset" : 0
        },
        {
            "buffer" : 0,
            "byteLength" : 375876,
            "byteOffset" : 375876
        },
        {
            "buffer" : 0,
            "byteLength" : 250584,
            "byteOffset" : 751752
        },
        {
            "buffer" : 0,
            "byteLength" : 343968,
            "byteOffset" : 1002336
        }
    ],
    "buffers" : [
        {
            "byteLength" : 1346304,
            "uri" : "data:application/octet-stream;base64,"
        }
    ]
}
