{
    "asset" : {
        "generator" : "Khronos glTF Blender I/O v1.7.33",
        "version" : "2.0"
    },
    "scene" : 0,
    "scenes" : [
        {
            "name" : "Scene",
            "nodes" : [
                0
            ]
        }
    ],
    "nodes" : [
        {
            "mesh" : 0,
            "name" : "Protein_99",
            "rotation" : [
                0.7071068286895752,
                0,
                0,
                0.7071067094802856
            ]
        }
    ],
    "materials" : [
        {
            "alphaMode" : "BLEND",
            "doubleSided" : true,
            "name" : "Cell_Protein_mt",
            "pbrMetallicRoughness" : {
                "baseColorFactor" : [
                    0.5607843399047852,
                    0.4627451002597809,
                    0.9098039269447327,
                    1
                ]
            }
        }
    ],
    "meshes" : [
        {
            "name" : "Protein_99",
            "primitives" : [
                {
                    "attributes" : {
                        "POSITION" : 0,
                        "NORMAL" : 1,
                        "TEXCOORD_0" : 2
                    },
                    "indices" : 3,
                    "material" : 0
                }
            ]
        }
    ],
    "accessors" : [
        {
            "bufferView" : 0,
            "componentType" : 5126,
            "count" : 1132,
            "max" : [
                0.591756284236908,
                0.8657435774803162,
                -25.75861930847168
            ],
            "min" : [
                -0.25749680399894714,
                -0.01668061502277851,
                -26.98676109313965
            ],
            "type" : "VEC3"
        },
        {
            "bufferView" : 1,
            "componentType" : 5126,
            "count" : 1132,
            "type" : "VEC3"
        },
        {
            "bufferView" : 2,
            "componentType" : 5126,
            "count" : 1132,
            "type" : "VEC2"
        },
        {
            "bufferView" : 3,
            "componentType" : 5123,
            "count" : 6528,
            "type" : "SCALAR"
        }
    ],
    "bufferViews" : [
        {
            "buffer" : 0,
            "byteLength" : 13584,
            "byteOffset" : 0
        },
        {
            "buffer" : 0,
            "byteLength" : 13584,
            "byteOffset" : 13584
        },
        {
            "buffer" : 0,
            "byteLength" : 9056,
            "byteOffset" : 27168
        },
        {
            "buffer" : 0,
            "byteLength" : 13056,
            "byteOffset" : 36224
        }
    ],
    "buffers" : [
        {
            "byteLength" : 49280,
            "uri" : "data:application/octet-stream;base64,"
        }
    ]
}
