{
    "asset" : {
        "generator" : "Khronos glTF Blender I/O v1.7.33",
        "version" : "2.0"
    },
    "scene" : 0,
    "scenes" : [
        {
            "name" : "Scene",
            "nodes" : [
                0
            ]
        }
    ],
    "nodes" : [
        {
            "mesh" : 0,
            "name" : "Ribosome_ER_529",
            "rotation" : [
                0.7071068286895752,
                0,
                0,
                0.7071067094802856
            ]
        }
    ],
    "materials" : [
        {
            "alphaMode" : "BLEND",
            "doubleSided" : true,
            "name" : "Cell_Ribosoma_1_mt",
            "pbrMetallicRoughness" : {
                "baseColorFactor" : [
                    1,
                    0.7905077934265137,
                    0.3199999928474426,
                    1
                ]
            }
        },
        {
            "alphaMode" : "BLEND",
            "doubleSided" : true,
            "name" : "Cell_Ribosoma_2_mt",
            "pbrMetallicRoughness" : {
                "baseColorFactor" : [
                    0.8999999761581421,
                    0.44326281547546387,
                    0.27000001072883606,
                    1
                ]
            }
        }
    ],
    "meshes" : [
        {
            "name" : "Ribosome_ER_529",
            "primitives" : [
                {
                    "attributes" : {
                        "POSITION" : 0,
                        "NORMAL" : 1,
                        "TEXCOORD_0" : 2
                    },
                    "indices" : 3,
                    "material" : 0
                },
                {
                    "attributes" : {
                        "POSITION" : 4,
                        "NORMAL" : 5,
                        "TEXCOORD_0" : 6
                    },
                    "indices" : 7,
                    "material" : 1
                }
            ]
        }
    ],
    "accessors" : [
        {
            "bufferView" : 0,
            "componentType" : 5126,
            "count" : 139,
            "max" : [
                10.072223663330078,
                2.812180519104004,
                -21.069181442260742
            ],
            "min" : [
                9.93762493133545,
                2.6816256046295166,
                -21.210662841796875
            ],
            "type" : "VEC3"
        },
        {
            "bufferView" : 1,
            "componentType" : 5126,
            "count" : 139,
            "type" : "VEC3"
        },
        {
            "bufferView" : 2,
            "componentType" : 5126,
            "count" : 139,
            "type" : "VEC2"
        },
        {
            "bufferView" : 3,
            "componentType" : 5123,
            "count" : 732,
            "type" : "SCALAR"
        },
        {
            "bufferView" : 4,
            "componentType" : 5126,
            "count" : 174,
            "max" : [
                10.122902870178223,
                2.839055061340332,
                -21.096811294555664
            ],
            "min" : [
                9.945918083190918,
                2.6609385013580322,
                -21.258514404296875
            ],
            "type" : "VEC3"
        },
        {
            "bufferView" : 5,
            "componentType" : 5126,
            "count" : 174,
            "type" : "VEC3"
        },
        {
            "bufferView" : 6,
            "componentType" : 5126,
            "count" : 174,
            "type" : "VEC2"
        },
        {
            "bufferView" : 7,
            "componentType" : 5123,
            "count" : 960,
            "type" : "SCALAR"
        }
    ],
    "bufferViews" : [
        {
            "buffer" : 0,
            "byteLength" : 1668,
            "byteOffset" : 0
        },
        {
            "buffer" : 0,
            "byteLength" : 1668,
            "byteOffset" : 1668
        },
        {
            "buffer" : 0,
            "byteLength" : 1112,
            "byteOffset" : 3336
        },
        {
            "buffer" : 0,
            "byteLength" : 1464,
            "byteOffset" : 4448
        },
        {
            "buffer" : 0,
            "byteLength" : 2088,
            "byteOffset" : 5912
        },
        {
            "buffer" : 0,
            "byteLength" : 2088,
            "byteOffset" : 8000
        },
        {
            "buffer" : 0,
            "byteLength" : 1392,
            "byteOffset" : 10088
        },
        {
            "buffer" : 0,
            "byteLength" : 1920,
            "byteOffset" : 11480
        }
    ],
    "buffers" : [
        {
            "byteLength" : 13400,
            "uri" : "data:application/octet-stream;base64,"
        }
    ]
}
